HIERARCHY
ROOT joint_Root
{
	OFFSET 0.0 0.0 0.0
	CHANNELS 6 Xposition Yposition Zposition Zrotation Xrotation Yrotation 
	JOINT Hips
	{
		OFFSET -0.726466 93.3139 -2.00062
		CHANNELS 6 Xposition Yposition Zposition Zrotation Xrotation Yrotation 
		JOINT Spine
		{
			OFFSET 15.7357 0.0 0.0
			CHANNELS 6 Xposition Yposition Zposition Zrotation Xrotation Yrotation 
			JOINT Chest
			{
				OFFSET 8.98455 -0.406207 0.0
				CHANNELS 6 Xposition Yposition Zposition Zrotation Xrotation Yrotation 
				JOINT Neck
				{
					OFFSET 16.3773 0.0 0.0
					CHANNELS 6 Xposition Yposition Zposition Zrotation Xrotation Yrotation 
					JOINT Head
					{
						OFFSET 6.45672 0.0 0.0
						CHANNELS 6 Xposition Yposition Zposition Zrotation Xrotation Yrotation 
						End Site
						{
							OFFSET 0.0 0.0 0.0
						}
					}
				}
				JOINT Shoulder_L
				{
					OFFSET 12.9942 -0.242716 4.98039
					CHANNELS 6 Xposition Yposition Zposition Zrotation Xrotation Yrotation 
					JOINT UpperArm_L
					{
						OFFSET 5.34809 0.0 0.0
						CHANNELS 6 Xposition Yposition Zposition Zrotation Xrotation Yrotation 
						JOINT LowerArm_L
						{
							OFFSET 24.3286 1.87007e-05 0.0
							CHANNELS 6 Xposition Yposition Zposition Zrotation Xrotation Yrotation 
							JOINT Hand_L
							{
								OFFSET 22.2916 0.0 0.0
								CHANNELS 6 Xposition Yposition Zposition Zrotation Xrotation Yrotation 
								End Site
								{
									OFFSET 0.0 0.0 0.0
								}
							}
						}
					}
				}
				JOINT Shoulder_R
				{
					OFFSET 12.9945 -0.242716 -4.98039
					CHANNELS 6 Xposition Yposition Zposition Zrotation Xrotation Yrotation 
					JOINT UpperArm_R
					{
						OFFSET -5.34813 0.0 0.0
						CHANNELS 6 Xposition Yposition Zposition Zrotation Xrotation Yrotation 
						JOINT LowerArm_R
						{
							OFFSET -24.3289 0.000322201 0.0
							CHANNELS 6 Xposition Yposition Zposition Zrotation Xrotation Yrotation 
							JOINT Hand_R
							{
								OFFSET -22.2915 -0.000108084 0.0
								CHANNELS 6 Xposition Yposition Zposition Zrotation Xrotation Yrotation 
								End Site
								{
									OFFSET 0.0 0.0 0.0
								}
							}
						}
					}
				}
			}
		}
		JOINT UpperLeg_L
		{
			OFFSET -2.19248 -6.46944 0.0
			CHANNELS 6 Xposition Yposition Zposition Zrotation Xrotation Yrotation 
			JOINT LowerLeg_L
			{
				OFFSET 39.0811 0.0 -1.23785e-05
				CHANNELS 6 Xposition Yposition Zposition Zrotation Xrotation Yrotation 
				JOINT Foot_L
				{
					OFFSET 40.9854 0.0 -1.26872e-05
					CHANNELS 6 Xposition Yposition Zposition Zrotation Xrotation Yrotation 
					JOINT Toes_L
					{
						OFFSET 11.7543 0.0 0.0
						CHANNELS 6 Xposition Yposition Zposition Zrotation Xrotation Yrotation 
						End Site
						{
							OFFSET 0.0 0.0 0.0
						}
					}
				}
			}
		}
		JOINT UpperLeg_R
		{
			OFFSET -2.19251 6.46944 0.0
			CHANNELS 6 Xposition Yposition Zposition Zrotation Xrotation Yrotation 
			JOINT LowerLeg_R
			{
				OFFSET -39.0811 -0.00228153 -0.0401928
				CHANNELS 6 Xposition Yposition Zposition Zrotation Xrotation Yrotation 
				JOINT Foot_R
				{
					OFFSET -40.9854 0.0 0.0
					CHANNELS 6 Xposition Yposition Zposition Zrotation Xrotation Yrotation 
					JOINT Toes_R
					{
						OFFSET -11.7543 0.0 0.0
						CHANNELS 6 Xposition Yposition Zposition Zrotation Xrotation Yrotation 
						End Site
						{
							OFFSET 0.0 0.0 0.0
						}
					}
				}
			}
		}
	}
}
MOTION
Frames:	8
Frame Time:	0.0333333
0.000000 0.000000 0.000000 0.000000 0.000000 -0.000000 -0.315991 92.220600 -0.979132 88.146200 -0.794209 4.604370 15.735700 0.000005 -0.000001 82.245400 85.321300 -81.743800 8.984550 -0.406207 -0.000000 1.511960 -1.289300 1.019300 16.377300 -0.000001 -0.000001 1.188560 -2.528150 0.548358 6.456720 -0.000001 -0.000000 4.299900 -2.353630 -0.861790 12.994200 -0.242716 4.980390 -90.098300 0.329568 -73.385900 5.348090 -0.000007 -0.000001 -66.936000 39.520400 -16.686200 24.328600 0.000019 0.000005 1.493930 3.554070 -22.815300 22.291600 -0.000001 0.000005 1.916920 5.476780 -5.629840 12.994500 -0.242716 -4.980390 88.096200 6.440340 -73.493400 -5.348130 -0.000001 -0.000004 -63.833200 40.920400 -18.441900 -24.328900 0.000322 -0.000009 3.688010 11.037300 -18.612200 -22.291500 -0.000108 -0.000004 1.801630 5.353970 -1.491040 -2.192480 -6.469440 -0.000000 -175.929000 -6.329940 -2.310610 39.081100 -0.000007 -0.000012 -0.098578 0.227556 23.422400 40.985400 -0.000006 -0.000013 -0.048677 2.600230 -66.730300 11.754300 -0.000000 0.000003 -0.000035 -0.000418 -16.593800 -2.192510 6.469440 -0.000001 179.115000 14.844200 -179.049000 -39.081100 -0.002282 -0.040193 -0.019902 0.064571 19.781800 -40.985400 0.000008 0.000006 3.477690 6.111380 -66.465000 -11.754300 -0.000006 -0.000006 -0.006389 -0.074325 -19.598300
0.000000 0.000000 0.000000 0.000000 0.000000 -0.000000 -0.337226 92.221800 -1.039610 88.146000 -0.699500 4.666260 15.735700 0.000005 -0.000001 81.695500 85.310000 -81.187100 8.984550 -0.406207 -0.000000 1.522450 -1.381780 1.034410 16.377300 -0.000001 -0.000001 1.038580 -2.588690 0.557490 6.456720 -0.000001 -0.000000 4.318400 -2.277490 -0.875513 12.994200 -0.242716 4.980390 -90.152500 0.515218 -73.514000 5.348090 -0.000007 -0.000001 -65.755100 37.069100 -17.373500 24.328600 0.000019 0.000005 1.514930 3.277670 -24.825200 22.291600 -0.000001 0.000005 1.374090 5.502870 -6.649590 12.994500 -0.242716 -4.980390 88.079300 6.471090 -73.429200 -5.348130 -0.000001 -0.000004 -62.520900 39.745000 -19.598800 -24.328900 0.000322 -0.000009 4.209320 11.349600 -20.509300 -22.291500 -0.000108 -0.000004 -3.025030 5.307920 -0.123195 -2.192480 -6.469440 -0.000000 -175.923000 -6.236280 -2.321880 39.081100 -0.000007 -0.000012 -0.098060 0.226030 23.452900 40.985400 -0.000006 -0.000013 -0.054538 2.613190 -66.693400 11.754300 -0.000000 0.000003 -0.000039 -0.000460 -16.595500 -2.192510 6.469440 -0.000001 179.143000 14.858200 -179.048000 -39.081100 -0.002282 -0.040193 -0.018302 0.059975 19.826500 -40.985400 0.000008 0.000006 3.546780 5.993840 -66.459000 -11.754300 -0.000006 -0.000006 -0.006055 -0.071338 -19.476500
0.000000 0.000000 0.000000 0.000000 0.000000 -0.000000 -0.364280 92.224600 -1.154270 88.165800 -0.588680 4.747760 15.735700 0.000005 -0.000001 81.231700 85.303700 -80.745400 8.984550 -0.406207 -0.000000 1.523640 -1.457520 0.991183 16.377300 -0.000001 -0.000001 1.082150 -2.595730 0.565828 6.456720 -0.000001 -0.000000 4.230090 -2.250630 -0.756550 12.994200 -0.242716 4.980390 -90.198900 0.667333 -73.407400 5.348090 -0.000007 -0.000001 -62.968900 33.707500 -19.732000 24.328600 0.000019 0.000005 2.370670 4.427560 -28.194600 22.291600 -0.000001 0.000005 2.815500 5.519340 -7.326180 12.994500 -0.242716 -4.980390 88.044900 6.462680 -73.128500 -5.348130 -0.000001 -0.000004 -60.168100 37.507300 -22.075900 -24.328900 0.000322 -0.000009 5.162570 11.912000 -23.643000 -22.291500 -0.000108 -0.000004 -9.939740 5.232450 1.921110 -2.192480 -6.469440 -0.000000 -175.920000 -6.228690 -2.362060 39.081100 -0.000007 -0.000012 -0.098456 0.226523 23.491700 40.985400 -0.000006 -0.000013 -0.050677 2.689640 -66.614600 11.754300 -0.000000 0.000003 -0.000041 -0.000477 -16.596100 -2.192510 6.469440 -0.000001 179.166000 14.804100 -179.087000 -39.081100 -0.002282 -0.040193 -0.017411 0.057232 19.912900 -40.985400 0.000008 0.000006 3.598280 5.824210 -66.434800 -11.754300 -0.000006 -0.000006 -0.006312 -0.073648 -19.570700
0.000000 0.000000 0.000000 0.000000 0.000000 -0.000000 -0.396503 92.230700 -1.322700 88.177300 -0.503797 4.874930 15.735700 0.000005 -0.000001 80.942700 85.316200 -80.478500 8.984550 -0.406207 -0.000000 1.491600 -1.499330 0.946963 16.377300 -0.000001 -0.000001 1.347620 -2.583910 0.568808 6.456720 -0.000001 -0.000000 4.195110 -2.289910 -0.645077 12.994200 -0.242716 4.980390 -90.183800 0.613943 -73.333500 5.348090 -0.000007 -0.000001 -59.638200 28.813600 -23.262900 24.328600 0.000019 0.000005 3.620150 5.742460 -32.301300 22.291600 -0.000001 0.000005 5.079620 5.545460 -8.489920 12.994500 -0.242716 -4.980390 88.068300 6.261940 -72.817200 -5.348130 -0.000001 -0.000004 -56.729600 34.550500 -25.988300 -24.328900 0.000322 -0.000009 6.284310 12.093100 -27.731200 -22.291500 -0.000108 -0.000004 -12.742900 5.184830 3.096890 -2.192480 -6.469440 -0.000000 -175.894000 -6.221100 -2.387180 39.081100 -0.000007 -0.000012 -0.098934 0.227187 23.532000 40.985400 -0.000006 -0.000013 -0.047950 2.804690 -66.505300 11.754300 -0.000000 0.000003 -0.000035 -0.000416 -16.593800 -2.192510 6.469440 -0.000001 179.162000 14.853400 -179.104000 -39.081100 -0.002282 -0.040193 -0.019901 0.063896 19.973000 -40.985400 0.000008 0.000006 3.504570 5.804260 -66.339100 -11.754300 -0.000006 -0.000006 -0.006149 -0.072180 -19.510800
0.000000 0.000000 0.000000 0.000000 0.000000 -0.000000 -0.407774 92.243400 -1.506370 88.166600 -0.548956 4.961400 15.735700 0.000005 -0.000001 81.137500 85.370900 -80.686600 8.984550 -0.406207 -0.000000 1.388060 -1.450760 0.918638 16.377300 -0.000001 -0.000001 1.579930 -2.567000 0.605971 6.456720 -0.000001 -0.000000 4.511390 -2.310950 -0.587094 12.994200 -0.242716 4.980390 -90.124500 0.418318 -73.431400 5.348090 -0.000007 -0.000001 -56.669500 22.287900 -27.224100 24.328600 0.000019 0.000005 4.364630 5.736170 -37.363600 22.291600 -0.000001 0.000005 6.862700 5.558870 -9.126780 12.994500 -0.242716 -4.980390 88.112500 6.063140 -72.671700 -5.348130 -0.000001 -0.000004 -52.799400 30.190500 -30.653300 -24.328900 0.000322 -0.000009 8.055600 12.592400 -32.990100 -22.291500 -0.000108 -0.000004 -10.199400 5.185100 3.095430 -2.192480 -6.469440 -0.000000 -175.875000 -6.275990 -2.435480 39.081100 -0.000007 -0.000012 -0.097175 0.222967 23.548800 40.985400 -0.000006 -0.000013 -0.048225 2.805310 -66.383700 11.754300 -0.000000 0.000003 -0.000038 -0.000448 -16.595000 -2.192510 6.469440 -0.000001 179.166000 14.890500 -179.148000 -39.081100 -0.002282 -0.040193 -0.023281 0.073199 19.972200 -40.985400 0.000008 0.000006 3.387940 5.907120 -66.194000 -11.754300 -0.000006 -0.000006 -0.006148 -0.072173 -19.510500
0.000000 0.000000 0.000000 0.000000 0.000000 -0.000000 -0.428579 92.259300 -1.706290 88.136100 -0.675782 5.049590 15.735700 0.000005 -0.000001 81.181300 85.411800 -80.745400 8.984550 -0.406207 -0.000000 1.308020 -1.430720 0.887281 16.377300 -0.000001 -0.000001 1.741700 -2.507470 0.709335 6.456720 -0.000001 -0.000000 4.823190 -2.213320 -0.541156 12.994200 -0.242716 4.980390 -90.039800 0.133670 -73.424900 5.348090 -0.000007 -0.000001 -54.310000 14.818500 -31.550900 24.328600 0.000019 0.000005 5.917710 6.278890 -43.456100 22.291600 -0.000001 0.000005 9.569850 5.572710 -9.815090 12.994500 -0.242716 -4.980390 88.148100 5.934670 -72.634400 -5.348130 -0.000001 -0.000004 -49.343500 24.117900 -35.558400 -24.328900 0.000322 -0.000009 11.193800 13.677700 -39.921100 -22.291500 -0.000108 -0.000004 -4.877120 5.210980 2.450670 -2.192480 -6.469440 -0.000000 -175.829000 -6.337640 -2.474650 39.081100 -0.000007 -0.000012 -0.096444 0.221224 23.555200 40.985400 -0.000006 -0.000013 -0.067526 2.760480 -66.253900 11.754300 -0.000000 0.000003 -0.000032 -0.000379 -16.592300 -2.192510 6.469440 -0.000001 179.208000 14.883900 -179.204000 -39.081100 -0.002282 -0.040193 -0.025097 0.078266 19.956200 -40.985400 0.000008 0.000006 3.326950 6.019380 -66.028600 -11.754300 -0.000006 -0.000006 -0.006324 -0.073753 -19.575000
0.000000 0.000000 0.000000 0.000000 0.000000 -0.000000 -0.419418 92.273300 -1.866030 88.093500 -0.895475 5.125810 15.735700 0.000005 -0.000001 81.492500 85.473000 -81.043100 8.984550 -0.406207 -0.000000 1.194190 -1.364610 0.912225 16.377300 -0.000001 -0.000001 1.889080 -2.373990 0.699115 6.456720 -0.000001 -0.000000 4.896430 -2.139600 -0.505185 12.994200 -0.242716 4.980390 -89.889200 -0.373799 -73.484700 5.348090 -0.000007 -0.000001 -53.136400 6.851030 -35.934700 24.328600 0.000019 0.000005 7.252600 6.123540 -50.027600 22.291600 -0.000001 0.000005 12.630000 5.587000 -10.584800 12.994500 -0.242716 -4.980390 88.268600 5.527430 -72.576800 -5.348130 -0.000001 -0.000004 -47.042500 16.961100 -40.492300 -24.328900 0.000322 -0.000009 15.403700 14.311400 -48.098300 -22.291500 -0.000108 -0.000004 1.546810 5.248070 1.501930 -2.192480 -6.469440 -0.000000 -175.790000 -6.437530 -2.488770 39.081100 -0.000007 -0.000012 -0.095634 0.219284 23.563000 40.985400 -0.000006 -0.000013 -0.083553 2.639860 -66.158100 11.754300 -0.000000 0.000003 -0.000038 -0.000442 -16.594800 -2.192510 6.469440 -0.000001 179.239000 14.784600 -179.233000 -39.081100 -0.002282 -0.040193 -0.027457 0.084974 19.910800 -40.985400 0.000008 0.000006 3.236450 6.184900 -65.868200 -11.754300 -0.000006 -0.000006 -0.006186 -0.072515 -19.524500
0.000000 0.000000 0.000000 0.000000 0.000000 -0.000000 -0.397985 92.291900 -2.000450 88.082100 -1.096880 5.065130 15.735700 0.000005 -0.000001 81.530700 85.517200 -81.057900 8.984550 -0.406207 -0.000000 1.107800 -1.347340 0.957810 16.377300 -0.000001 -0.000001 1.764030 -2.212040 0.712360 6.456720 -0.000001 -0.000000 4.856460 -1.962410 -0.564303 12.994200 -0.242716 4.980390 -89.648900 -1.197200 -73.653200 5.348090 -0.000007 -0.000001 -53.285100 -1.288980 -40.555100 24.328600 0.000019 0.000005 8.610540 5.710070 -56.688700 22.291600 -0.000001 0.000005 15.651000 5.602840 -11.490900 12.994500 -0.242716 -4.980390 88.514100 4.795420 -72.761700 -5.348130 -0.000001 -0.000004 -46.435300 8.890220 -45.515500 -24.328900 0.000322 -0.000009 18.105400 12.714200 -56.055200 -22.291500 -0.000108 -0.000004 8.605410 5.312960 -0.255611 -2.192480 -6.469440 -0.000000 -175.812000 -6.521630 -2.589330 39.081100 -0.000007 -0.000012 -0.093301 0.214529 23.504800 40.985400 -0.000006 -0.000013 -0.084136 2.530940 -66.051100 11.754300 -0.000000 0.000003 -0.000033 -0.000393 -16.592900 -2.192510 6.469440 -0.000001 179.283000 14.709700 -179.406000 -39.081100 -0.002282 -0.040193 -0.026863 0.083452 19.884800 -40.985400 0.000008 0.000006 3.280280 6.282160 -65.740900 -11.754300 -0.000006 -0.000006 -0.006309 -0.073614 -19.569300
